<svg xmlns="http://www.w3.org/2000/svg" width="512" height="512" fill="none" xmlns:v="https://vecta.io/nano"><path fill="#f0f" d="M0 0h512v512H0z"/><path d="M284.327 401.955c-8.046 5.438-13.65 7.728-16.81 6.869-3.161-1.145-7.041-5.581-11.638-13.309l-15.948-30.053-46.983 39.069c-2.586 2.29-5.459 3.435-8.62 3.435-3.161-.287-7.615-2.29-13.362-6.011l-40.517-29.194c-7.759-5.439-11.782-10.018-12.069-13.739s2.73-9.016 9.052-15.885l41.379-43.362-57.758-9.446c-9.196-1.717-14.799-4.15-16.811-7.298s-1.581-9.159 1.293-18.032l15.517-47.656c1.149-3.721 2.298-6.583 3.448-8.586 1.437-2.29 2.73-4.008 3.879-5.152l55.603-46.797c1.149-1.145 2.73-1.861 4.741-2.147s4.454-.143 7.328.429c0-.286.144-.429.431-.429l.431-.429 56.034-46.797c1.437-1.145 3.448-2.004 6.034-2.576 2.874-.573 6.178-.859 9.914-.859h50.431c9.482 0 15.373 1.431 17.672 4.293 2.586 2.862 3.017 8.873 1.293 18.032l-7.759 56.242 52.155-24.042c8.046-4.007 13.793-5.295 17.241-3.864s6.609 6.726 9.483 15.885l15.948 47.656c2.011 5.724 2.873 10.017 2.586 12.88s-1.437 5.295-3.448 7.298l-47.844 39.928 17.241 18.032c5.747 6.297 8.62 11.162 8.62 14.597s-2.442 7.442-7.327 12.021l-55.603 46.368c-.575.286-1.293.716-2.155 1.288l-1.724 1.717v.43h-.431l-40.948 29.194zm-32.759-55.384l31.466-60.535 31.896 60.535c3.448 6.011 6.465 9.446 9.052 10.304 2.586.573 7.04-1.144 13.361-5.152l40.517-29.194c6.035-4.293 9.196-7.871 9.483-10.733s-2.012-7.013-6.897-12.451l-47.413-49.373 65.948-10.733c7.184-1.145 11.494-2.862 12.931-5.152 1.724-2.576 1.436-7.442-.862-14.597l-15.948-47.656c-2.299-7.155-4.885-11.306-7.759-12.45-2.586-1.145-7.04-.144-13.362 3.005l-59.051 27.477 8.62-63.97c1.15-7.156.719-11.878-1.293-14.168-1.724-2.29-6.178-3.435-13.362-3.435h-50.43c-7.184 0-11.925 1.145-14.224 3.435-2.012 2.29-2.443 7.012-1.293 14.168l9.914 63.97-61.207-27.477c-6.322-3.149-10.919-4.15-13.793-3.005s-5.316 5.295-7.327 12.45l-15.517 47.656c-2.299 7.155-2.73 12.021-1.293 14.597 1.724 2.29 6.178 4.007 13.361 5.152l65.517 10.733-46.982 49.373c-4.885 5.438-7.184 9.589-6.897 12.451s3.449 6.44 9.483 10.733l40.517 29.194c6.322 4.008 10.776 5.725 13.362 5.152 2.873-.858 6.034-4.293 9.482-10.304zm79.31-44.221l-46.982-66.546-46.983 66.546-3.448-2.575 45.689-65.259-74.137-24.042 1.724-4.293 75 24.471v-83.719h4.31v83.719l74.999-24.471 1.724 4.293-74.137 24.042 45.689 65.259-3.448 2.575z" fill="#fff"/></svg>